<?xml version="1.0" standalone="no"?>
<!DOCTYPE svg PUBLIC "-//W3C//DTD SVG 20010904//EN"
 "http://www.w3.org/TR/2001/REC-SVG-20010904/DTD/svg10.dtd">
<svg version="1.0" xmlns="http://www.w3.org/2000/svg"
 width="300.000000pt" height="300.000000pt" viewBox="0 0 300.000000 300.000000"
 preserveAspectRatio="xMidYMid meet">
<metadata>
Project Alice Icon
</metadata>
<g transform="translate(0.000000,300.000000) scale(0.100000,-0.100000)"
fill="#000000" stroke="none">
<path d="M1451 2616 c-19 -23 -10 -136 12 -150 12 -8 22 -8 35 0 20 13 29 112
12 144 -12 23 -42 26 -59 6z"/>
<path d="M942 2408 c-22 -22 -13 -46 36 -92 53 -52 77 -57 94 -21 11 24 8 30
-37 75 -50 51 -71 60 -93 38z"/>
<path d="M1936 2373 c-54 -56 -60 -96 -15 -101 20 -2 36 8 72 47 52 55 54 62
31 85 -24 25 -39 20 -88 -31z"/>
<path d="M1390 2380 c-169 -31 -319 -141 -390 -285 -102 -207 -76 -418 75
-610 86 -108 88 -118 94 -385 7 -269 7 -269 96 -368 70 -77 123 -102 213 -102
87 0 154 32 218 103 87 99 88 101 94 367 6 267 7 269 108 402 90 119 122 211
122 351 0 232 -145 431 -369 507 -70 23 -194 33 -261 20z m232 -88 c147 -49
265 -164 302 -296 65 -234 -28 -451 -237 -550 -147 -69 -276 -68 -424 4 -135
66 -220 180 -243 325 -22 138 24 288 120 389 53 57 158 119 226 135 69 16 196
13 256 -7z m211 -810 c-7 -4 -19 -24 -27 -44 -9 -20 -20 -40 -26 -43 -13 -8
-40 12 -40 29 1 13 92 78 99 70 3 -3 0 -8 -6 -12z m-613 -60 c0 -3 -7 -14 -17
-24 -15 -17 -17 -16 -45 32 -15 27 -28 52 -28 55 0 4 20 -8 45 -26 25 -18 45
-35 45 -37z m29 -43 c39 -29 153 -59 222 -59 70 0 205 34 241 60 37 27 39 26
21 -17 -8 -21 -16 -66 -17 -100 l-1 -63 -237 0 -238 0 0 53 c0 30 -6 75 -14
100 -8 26 -12 47 -10 47 3 0 18 -9 33 -21z m9 -227 c-6 -7 -20 -18 -30 -23
-16 -9 -18 -5 -18 30 l0 40 29 -17 c23 -13 27 -20 19 -30z m492 3 c0 -25 -2
-45 -4 -45 -3 0 -17 11 -32 25 l-27 25 24 20 c34 28 39 25 39 -25z m-48 -52
c22 -20 23 -46 2 -64 -25 -20 -431 -20 -448 1 -25 30 -26 40 -6 60 19 19 32
20 227 20 178 0 209 -2 225 -17z m44 -161 c-7 -7 -46 28 -46 41 0 6 10 22 23
35 l22 24 3 -47 c2 -26 1 -50 -2 -53z m-486 48 c0 -9 -39 -44 -44 -39 -5 5 -9
38 -7 62 1 16 3 16 26 1 14 -9 25 -20 25 -24z m448 -70 c6 -56 -5 -59 -218
-64 -107 -2 -203 1 -212 6 -28 14 -40 45 -28 68 11 20 19 20 233 18 l222 -3 3
-25z m12 -92 c-26 -48 -70 -85 -70 -56 0 6 -7 19 -15 28 -15 16 -12 18 29 29
25 6 48 16 51 22 13 20 17 1 5 -23z m-407 -15 c5 -3 1 -14 -9 -24 -19 -21 -36
-14 -55 24 -10 17 -8 18 23 12 18 -4 37 -10 41 -12z m180 -33 l140 0 -24 -26
c-63 -69 -193 -73 -261 -7 -31 29 -37 49 -12 39 9 -3 79 -6 157 -6z"/>
<path d="M1362 2228 c-32 -32 8 -80 48 -58 26 14 25 35 -2 54 -27 19 -31 19
-46 4z"/>
<path d="M1762 2170 c77 -97 102 -186 87 -315 -23 -207 -204 -375 -404 -375
-46 0 -129 17 -179 36 -12 5 -17 4 -13 -3 12 -19 127 -44 200 -45 126 -1 242
59 323 165 72 93 99 185 92 307 -5 94 -45 184 -104 240 l-38 35 36 -45z"/>
<path d="M1234 2171 c-49 -30 -105 -102 -102 -131 5 -42 40 -38 77 9 18 22 47
49 66 61 36 22 44 47 23 68 -16 16 -28 15 -64 -7z"/>
<path d="M1100 1971 c0 -12 6 -21 16 -21 9 0 14 7 12 17 -5 25 -28 28 -28 4z"/>
<path d="M1231 1963 c-42 -21 -72 -69 -69 -108 2 -24 8 -31 29 -33 22 -3 27 2
35 30 13 45 55 66 88 44 13 -8 26 -29 29 -46 6 -27 10 -31 34 -28 22 2 29 9
31 30 7 57 -59 128 -118 128 -14 0 -40 -8 -59 -17z"/>
<path d="M1623 1966 c-58 -26 -98 -127 -57 -143 23 -8 48 9 52 36 2 12 15 29
28 38 34 22 70 5 90 -42 11 -26 20 -35 38 -35 34 0 39 25 17 75 -31 71 -102
100 -168 71z"/>
<path d="M1373 1753 c-20 -7 -15 -58 6 -77 49 -44 129 -49 186 -12 30 19 42
60 25 81 -17 21 -27 19 -52 -10 -15 -17 -32 -25 -54 -25 -20 0 -44 10 -62 25
-17 14 -31 25 -33 24 -2 0 -10 -3 -16 -6z"/>
<path d="M711 1912 c-7 -14 -6 -25 5 -40 13 -19 21 -21 77 -16 69 7 93 24 76
55 -14 28 -144 28 -158 1z"/>
<path d="M2102 1918 c-18 -18 -14 -46 7 -58 11 -5 41 -10 66 -10 54 0 85 14
85 38 0 31 -22 42 -85 42 -34 0 -66 -5 -73 -12z"/>
<path d="M860 1504 c-50 -47 -60 -70 -38 -92 21 -21 43 -13 86 31 46 47 53 80
22 97 -17 9 -27 4 -70 -36z"/>
<path d="M2016 1534 c-24 -24 -20 -36 32 -87 49 -48 69 -56 90 -35 21 21 13
43 -36 91 -52 51 -63 55 -86 31z"/>
<path d="M1027 1384 c-4 -4 -7 -15 -7 -25 0 -12 -9 -19 -27 -21 -37 -4 -40
-41 -4 -46 13 -2 26 -12 28 -23 6 -22 43 -26 43 -4 0 8 9 19 20 25 26 14 26
40 1 47 -11 3 -21 14 -23 26 -3 21 -19 32 -31 21z"/>
<path d="M1898 1354 c-34 -18 -36 -49 -5 -75 29 -24 42 -24 77 3 38 28 38 44
-2 68 -39 23 -36 23 -70 4z"/>
</g>
</svg>
